<svg xmlns="http://www.w3.org/2000/svg"  viewBox="0 0 64 64" width="128px" height="128px" baseProfile="basic"><rect width="10" height="4" x="14" y="25" fill="#008aa9"/><rect width="10" height="4" x="40" y="25" fill="#008aa9"/><ellipse cx="32" cy="61" opacity=".3" rx="19" ry="3"/><path fill="#9c34c2" d="M43.999,21.326v-4.354C43.999,10.388,38.597,5,31.995,5s-12.004,5.388-12.004,11.972v4.354H43.999z"/><path fill="#4ccff1" d="M20,18h24v23.977c0,1.105-0.895,2-2,2H22c-1.105,0-2-0.895-2-2V18z"/><path fill="#4ccff1" d="M20,18h24v23.977c0,1.105-0.895,2-2,2H22c-1.105,0-2-0.895-2-2V18z"/><path d="M39,34v4.978h-3c-2.762,0-5,2.238-5,5h11c1.105,0,2-0.895,2-2V29C41.238,29,39,31.238,39,34z" opacity=".15"/><path fill="#9c34c2" d="M38.93,47H25.07c-0.669,0-1.293-0.334-1.664-0.891L22,44h20l-1.406,2.109	C40.223,46.666,39.598,47,38.93,47z"/><path fill="#4ccff1" d="M13,48l2.205,0.432L17,48V20c0-1.105-0.895-2-2-2h0c-1.105,0-2,0.895-2,2V48z"/><path fill="#4ccff1" d="M13,47l-2.403,5.606C10.315,53.266,10.799,54,11.517,54H19c0.552,0,1-0.448,1-1v-5	c0-0.552-0.448-1-1-1H13z"/><path fill="#4ccff1" d="M51,20c0-1.105-0.895-2-2-2h0c-1.105,0-2,0.895-2,2v28l1.795,0.432L51,48V20z"/><path fill="#4ccff1" d="M45,47c-0.552,0-1,0.448-1,1v5c0,0.552,0.448,1,1,1h7.483c0.718,0,1.202-0.734,0.919-1.394L51,47H45z"/><path fill="#9c34c2" d="M34,49h-4c-0.552,0-1-0.448-1-1v-3h6v3C35,48.552,34.552,49,34,49z"/><circle cx="32" cy="13" r="2" fill="#4ccff1"/><path fill="#9c34c2" d="M29.977,25.045h4.045c1.092,0,1.977,0.885,1.977,1.977v0C36,28.115,35.115,29,34.023,29h-4.045	C28.885,29,28,28.115,28,27.023v0C28,25.931,28.885,25.045,29.977,25.045z"/><path fill="#9c34c2" d="M29.977,33h4.045C35.115,33,36,33.885,36,34.977v0.045C36,36.115,35.115,37,34.023,37h-4.045	C28.885,37,28,36.115,28,35.023v-0.045C28,33.885,28.885,33,29.977,33z"/><path fill="#fff" d="M26.083,13.253c1.081-1.685,2.818-2.836,4.767-3.159	c2.366-0.394,4.061-2.389,4.171-4.691C34.052,5.149,33.041,5,31.995,5c-6.007,0-11.005,4.464-11.86,10.227	c0.565,0.211,1.151,0.326,1.735,0.326C23.517,15.554,25.128,14.741,26.083,13.253z" opacity=".3"/><path fill="none" stroke="#fff" stroke-linecap="round" stroke-linejoin="round" stroke-miterlimit="10" stroke-width="3" d="M25.044,12.097c0.994-1.403,2.405-2.493,4.052-3.09"/></svg>